<svg width="112" height="51" viewBox="0 0 112 51" fill="none" xmlns="http://www.w3.org/2000/svg">
<path d="M86.7097 0C75.9938 0 65.2877 8.2296 58.5753 14.637L57.9688 16.6362L56 17.1955C49.7125 10.6975 37.5078 0 25.2903 0C11.345 0 0 11.345 0 25.2903C0 39.2357 11.345 50.5807 25.2903 50.5807C36.0062 50.5807 46.7123 42.3511 53.4247 35.9437L54.0131 33.8944L56 33.3852C62.2875 39.8832 74.4922 50.5807 86.7097 50.5807C100.655 50.5807 112 39.2357 112 25.2903C112 11.345 100.655 0 86.7097 0ZM25.2903 41.1497C15.2031 41.1497 11.8193 34.1946 10.946 27.0557C10.8752 26.4768 10.8388 25.8878 10.8388 25.2903C10.8388 17.3219 17.3219 10.8386 25.2906 10.8386C33.206 10.8386 43.1292 19.4228 48.7373 25.2903L48.125 27.7513C42.366 33.4762 32.555 41.1497 25.2903 41.1497ZM86.7097 39.7421C78.7942 39.7421 68.871 31.1579 63.2629 25.2903C65.2606 19.3841 78.7942 10.0507 86.7097 10.0507C95.5938 10.0507 100.203 16.4058 101.059 23.5633C101.126 24.1297 101.161 24.7061 101.161 25.2903C101.161 33.2588 94.6783 39.7421 86.7097 39.7421Z" fill="#231F20"/>
<path d="M86.7105 7.22559C80.341 7.22559 72.5303 11.9055 65.9564 17.4985C64.458 18.7734 62.2228 18.6483 60.9153 17.1783C60.1773 16.3483 59.3528 15.4429 58.5767 14.6373C57.6367 15.5346 56.7731 16.3971 56.0007 17.1953C55.8637 17.0538 59.6873 21.2374 60.1956 21.8591C60.9459 22.7732 62.0038 23.9639 63.2686 25.2849C63.919 24.6048 64.6422 23.8825 65.3997 23.1464C71.1666 17.5377 79.7138 10.8385 86.7101 10.8385C94.0656 10.8385 100.164 16.4459 101.058 23.5632C101.132 22.9699 101.162 22.29 101.162 21.6771C101.162 13.7087 94.6791 7.22559 86.7105 7.22559Z" fill="#231F20"/>
<path d="M25.2911 43.3543C31.6607 43.3543 39.4714 38.6743 46.0453 33.0813C47.5437 31.8065 49.7789 31.9316 51.0864 33.4016C51.8244 34.2315 52.6489 35.1369 53.425 35.9426C54.365 35.0453 55.2286 34.1827 56.001 33.3845C56.138 33.5261 52.3144 29.3425 51.8061 28.7208C51.0557 27.8066 49.9979 26.616 48.7331 25.2949C48.0827 25.975 47.3595 26.6973 46.602 27.4334C40.8351 33.0422 32.2879 39.7414 25.2916 39.7414C17.9361 39.7414 11.84 34.1725 10.9464 27.0552C10.872 27.6485 10.8398 28.2896 10.8398 28.9028C10.8394 36.8712 17.3225 43.3543 25.2911 43.3543Z" fill="#231F20"/>
</svg>
