<svg width="255" height="42" viewBox="0 0 255 42" fill="none" xmlns="http://www.w3.org/2000/svg">
<line x1="2.49902" y1="42" x2="2.49903" y2="-7.52409e-08" stroke="#231F20" stroke-width="5"/>
<line x1="85.832" y1="42" x2="85.832" y2="-7.22313e-08" stroke="#231F20" stroke-width="5"/>
<line x1="23.332" y1="37.1802" x2="23.332" y2="4.81952" stroke="#231F20" stroke-width="5"/>
<line x1="64.999" y1="30.2949" x2="64.999" y2="11.7048" stroke="#231F20" stroke-width="5"/>
<line x1="127.499" y1="30.2949" x2="127.499" y2="11.7048" stroke="#231F20" stroke-width="5"/>
<line x1="189.999" y1="30.2949" x2="189.999" y2="11.7048" stroke="#231F20" stroke-width="5"/>
<line x1="23.332" y1="37.1802" x2="23.332" y2="4.81952" stroke="#231F20" stroke-width="5"/>
<line x1="106.666" y1="37.1802" x2="106.666" y2="4.81952" stroke="#231F20" stroke-width="5"/>
<line x1="148.332" y1="37.1802" x2="148.332" y2="4.81952" stroke="#231F20" stroke-width="5"/>
<line x1="44.166" y1="42" x2="44.166" y2="-7.22313e-08" stroke="#231F20" stroke-width="5"/>
<line x1="23.332" y1="37.1802" x2="23.332" y2="4.81952" stroke="#231F20" stroke-width="5"/>
<line x1="252.499" y1="42" x2="252.499" y2="-7.22313e-08" stroke="#231F20" stroke-width="5"/>
<line x1="210.832" y1="42" x2="210.832" y2="-7.22313e-08" stroke="#231F20" stroke-width="5"/>
<line x1="231.666" y1="37.1807" x2="231.666" y2="4.82001" stroke="#231F20" stroke-width="5"/>
<line x1="169.166" y1="42" x2="169.166" y2="-7.22313e-08" stroke="#231F20" stroke-width="5"/>
</svg>
