<svg width="27" height="27" viewBox="0 0 27 27" fill="none" xmlns="http://www.w3.org/2000/svg">
<path d="M13.5 8.01562C10.4467 8.01562 7.96289 10.4994 7.96289 13.5527C7.96289 16.6061 10.4467 19.0898 13.5 19.0898C16.5533 19.0898 19.0371 16.6061 19.0371 13.5527C19.0371 10.4994 16.5533 8.01562 13.5 8.01562ZM13.5 8.01562C10.4467 8.01562 7.96289 10.4994 7.96289 13.5527C7.96289 16.6061 10.4467 19.0898 13.5 19.0898C16.5533 19.0898 19.0371 16.6061 19.0371 13.5527C19.0371 10.4994 16.5533 8.01562 13.5 8.01562ZM23.0449 0H3.95508C1.77187 0 0 1.77187 0 3.95508V23.0449C0 25.2281 1.77187 27 3.95508 27H23.0449C25.2281 27 27 25.2281 27 23.0449V3.95508C27 1.77187 25.2281 0 23.0449 0ZM13.5 20.6719C9.57662 20.6719 6.38086 17.4761 6.38086 13.5527C6.38086 9.62924 9.57662 6.43359 13.5 6.43359C17.4234 6.43359 20.6191 9.62924 20.6191 13.5527C20.6191 17.4761 17.4234 20.6719 13.5 20.6719ZM22.2012 6.43359C21.3311 6.43359 20.6191 5.72168 20.6191 4.85156C20.6191 3.98145 21.3311 3.26953 22.2012 3.26953C23.0713 3.26953 23.7832 3.98145 23.7832 4.85156C23.7832 5.72168 23.0713 6.43359 22.2012 6.43359ZM13.5 8.01562C10.4467 8.01562 7.96289 10.4994 7.96289 13.5527C7.96289 16.6061 10.4467 19.0898 13.5 19.0898C16.5533 19.0898 19.0371 16.6061 19.0371 13.5527C19.0371 10.4994 16.5533 8.01562 13.5 8.01562ZM13.5 8.01562C10.4467 8.01562 7.96289 10.4994 7.96289 13.5527C7.96289 16.6061 10.4467 19.0898 13.5 19.0898C16.5533 19.0898 19.0371 16.6061 19.0371 13.5527C19.0371 10.4994 16.5533 8.01562 13.5 8.01562ZM13.5 8.01562C10.4467 8.01562 7.96289 10.4994 7.96289 13.5527C7.96289 16.6061 10.4467 19.0898 13.5 19.0898C16.5533 19.0898 19.0371 16.6061 19.0371 13.5527C19.0371 10.4994 16.5533 8.01562 13.5 8.01562Z" fill="#A8A9AD"/>
</svg>
