<svg width="30" height="18" viewBox="0 0 30 18" fill="none" xmlns="http://www.w3.org/2000/svg">
<path d="M24.8938 10.2848C24.4088 9.67226 24.5475 9.39976 24.8938 8.85226C24.9 8.84601 28.9038 3.31351 29.3163 1.43726L29.3188 1.43601C29.5238 0.752256 29.3188 0.249756 28.3275 0.249756H25.0475C24.2125 0.249756 23.8275 0.681006 23.6213 1.16351C23.6213 1.16351 21.9513 5.16101 19.5888 7.75226C18.8263 8.50101 18.4738 8.74101 18.0575 8.74101C17.8525 8.74101 17.5338 8.50101 17.5338 7.81726V1.43601C17.5338 0.616006 17.3 0.249756 16.6088 0.249756H11.4513C10.9275 0.249756 10.6163 0.632256 10.6163 0.988506C10.6163 1.76601 11.7975 1.94476 11.92 4.13226V8.87851C11.92 9.91851 11.7313 10.1098 11.3125 10.1098C10.1975 10.1098 7.49125 6.09601 5.8875 1.50226C5.56375 0.611006 5.2475 0.251006 4.40625 0.251006H1.125C0.18875 0.251006 0 0.682256 0 1.16476C0 2.01726 1.115 6.25601 5.185 11.856C7.8975 15.6785 11.7175 17.7498 15.1925 17.7498C17.2813 17.7498 17.5363 17.2898 17.5363 16.4985C17.5363 12.846 17.3475 12.501 18.3938 12.501C18.8788 12.501 19.7138 12.741 21.6638 14.5848C23.8925 16.771 24.2588 17.7498 25.5063 17.7498H28.7863C29.7213 17.7498 30.195 17.2898 29.9225 16.3823C29.2988 14.4735 25.0838 10.5473 24.8938 10.2848Z" fill="white"/>
</svg>
