<svg width="30" height="22" viewBox="0 0 30 22" fill="none" xmlns="http://www.w3.org/2000/svg">
<path d="M29.3366 3.41127L29.3741 3.65627C29.0116 2.37002 28.0329 1.37752 26.7891 1.01627L26.7629 1.01002C24.4241 0.375017 15.0129 0.375017 15.0129 0.375017C15.0129 0.375017 5.62537 0.362517 3.26287 1.01002C1.99537 1.37752 1.01537 2.37002 0.659118 3.63002L0.652868 3.65627C-0.220882 8.22002 -0.227132 13.7038 0.691618 18.59L0.652868 18.3425C1.01537 19.6288 1.99412 20.6213 3.23787 20.9825L3.26412 20.9888C5.60037 21.625 15.0141 21.625 15.0141 21.625C15.0141 21.625 24.4004 21.625 26.7641 20.9888C28.0329 20.6213 29.0129 19.6288 29.3691 18.3688L29.3754 18.3425C29.7729 16.22 30.0004 13.7775 30.0004 11.2825C30.0004 11.1913 30.0004 11.0988 29.9991 11.0063C30.0004 10.9213 30.0004 10.82 30.0004 10.7188C30.0004 8.22252 29.7729 5.78002 29.3366 3.41127ZM12.0104 15.5638V6.44752L19.8429 11.0125L12.0104 15.5638Z" fill="white"/>
</svg>
