<svg width="206" height="60" viewBox="0 0 206 60" fill="none" xmlns="http://www.w3.org/2000/svg">
<g clip-path="url(#clip0)">
<path fill-rule="evenodd" clip-rule="evenodd" d="M52.341 53.2139V53.9353H49.6901V59.8821H48.8394V53.2139H52.341Z" fill="white"/>
<path fill-rule="evenodd" clip-rule="evenodd" d="M54.4693 56.5106C54.7012 56.5615 54.9382 56.5842 55.1753 56.5785C56.2025 56.5785 56.8308 56.0749 56.8308 55.1498C56.8308 54.2248 56.2131 53.8426 55.2741 53.8426C55.0052 53.8354 54.7364 53.8594 54.4729 53.914V56.507L54.4693 56.5106ZM53.6187 53.2961C54.1579 53.2082 54.7033 53.1651 55.2494 53.1676C55.9123 53.1157 56.5708 53.3128 57.0991 53.7212C57.2908 53.8968 57.442 54.1129 57.5421 54.3543C57.6421 54.5956 57.6885 54.8562 57.678 55.1177C57.6913 55.3783 57.6529 55.639 57.565 55.8844C57.4771 56.1298 57.3415 56.3549 57.1662 56.5463C56.897 56.7995 56.58 56.9949 56.2342 57.1207C55.8884 57.2466 55.521 57.3002 55.1541 57.2785C54.9243 57.2859 54.6944 57.2655 54.4693 57.2178V59.893H53.6187V53.2926V53.2961Z" fill="white"/>
<path fill-rule="evenodd" clip-rule="evenodd" d="M59.4787 53.214L60.7882 56.0713C60.9542 56.4678 61.113 56.8642 61.2683 57.25H61.2895C61.406 56.9107 61.533 56.5178 61.6989 56.0499L62.7261 53.2211H63.6192L62.2461 56.6428C61.9335 57.5333 61.5201 58.3843 61.0142 59.1786C60.8469 59.4258 60.624 59.6292 60.3637 59.772C60.1035 59.9149 59.8135 59.993 59.5175 60.0001C59.3553 60.0066 59.1931 59.9861 59.0374 59.9394L59.1257 59.2251C59.2284 59.2508 59.3341 59.2616 59.4398 59.2572C60.1246 59.2572 60.5235 58.5929 60.7318 58.1071C60.763 58.0451 60.7766 57.9755 60.771 57.9061C60.7654 57.8368 60.7408 57.7703 60.7 57.7143L58.5115 53.1997L59.4787 53.214Z" fill="white"/>
<path fill-rule="evenodd" clip-rule="evenodd" d="M69.6513 53.2139V59.8821H68.8006V53.9353H65.7367V59.8821H64.886V53.2139H69.6513Z" fill="white"/>
<path fill-rule="evenodd" clip-rule="evenodd" d="M76.3332 53.2139V59.8821H75.479V53.9353H72.4186V59.8821H71.5679V53.2139H76.3332Z" fill="white"/>
<path fill-rule="evenodd" clip-rule="evenodd" d="M81.4658 57.1141L80.8199 55.1926C80.6751 54.7568 80.5763 54.3604 80.4669 53.9746H80.4457C80.3469 54.3711 80.241 54.7783 80.1139 55.1818L79.4679 57.1141H81.4658ZM79.3055 57.7856L78.6208 59.8857H77.7383L79.9762 53.2139H81.0034L83.2519 59.8857H82.3448L81.6388 57.7856H79.3055Z" fill="white"/>
<path fill-rule="evenodd" clip-rule="evenodd" d="M88.1195 53.2139V56.1712H88.3842L90.6434 53.2139H91.6706L89.1749 56.2855C90.2621 56.4355 90.6822 57.107 91.0246 58.007C91.2292 58.6517 91.4708 59.2838 91.7482 59.9H90.8269C90.5925 59.3895 90.3931 58.8632 90.2304 58.3249C89.9303 57.4427 89.5067 56.8391 88.3913 56.8391H88.1195V59.9H87.2688V53.2139H88.1195Z" fill="white"/>
<path fill-rule="evenodd" clip-rule="evenodd" d="M93.3648 56.5892C93.3648 58.0178 94.1273 59.2894 95.4827 59.2894C96.8382 59.2894 97.6007 58.0321 97.6007 56.5213C97.6007 55.1927 96.9159 53.8069 95.4827 53.8069C94.0496 53.8069 93.3648 55.1248 93.3648 56.5892ZM98.4796 56.4785C98.4796 58.775 97.0994 59.993 95.4157 59.993C93.6754 59.993 92.4541 58.6286 92.4541 56.607C92.4541 54.4891 93.7566 53.1033 95.5145 53.1033C97.2724 53.1033 98.4796 54.4998 98.4796 56.4785Z" fill="white"/>
<path fill-rule="evenodd" clip-rule="evenodd" d="M105.547 56.9533C105.498 56.0247 105.438 54.9067 105.448 54.0745H105.42C105.194 54.8567 104.919 55.6961 104.587 56.6068L103.422 59.8427H102.78L101.721 56.6676C101.407 55.7282 101.142 54.8817 100.955 54.0745H100.937C100.916 54.9067 100.867 56.0247 100.81 57.0247L100.634 59.882H99.8218L100.281 53.2102H101.368L102.494 56.4247C102.766 57.2462 102.992 57.9783 103.158 58.6712H103.186C103.352 57.9998 103.588 57.2676 103.892 56.4247L105.067 53.2102H106.151L106.564 59.882H105.731L105.565 56.9497L105.547 56.9533Z" fill="white"/>
<path fill-rule="evenodd" clip-rule="evenodd" d="M113.059 53.2139V59.8821H112.204V53.9353H109.144V59.8821H108.293V53.2139H113.059Z" fill="white"/>
<path fill-rule="evenodd" clip-rule="evenodd" d="M118.191 57.1141L117.545 55.1926C117.4 54.7568 117.301 54.3604 117.192 53.9746H117.174C117.075 54.3711 116.969 54.7783 116.842 55.1818L116.214 57.1141H118.191ZM116.031 57.7856L115.346 59.8857H114.467L116.705 53.2139H117.732L119.98 59.8857H119.073L118.367 57.7856H116.031Z" fill="white"/>
<path fill-rule="evenodd" clip-rule="evenodd" d="M122.236 53.2139V56.0033H125.424V53.2139H126.285V59.8821H125.424V56.7569H122.236V59.8821H121.382V53.2139H122.236Z" fill="white"/>
<path fill-rule="evenodd" clip-rule="evenodd" d="M128.999 53.2139V56.0248C128.999 57.0749 128.978 57.9535 128.918 58.8464H128.939C129.271 58.1535 129.68 57.4177 130.16 56.6391L132.278 53.2068H133.157V59.8786H132.356V57.0213C132.356 55.9498 132.356 55.1533 132.433 54.3104H132.405C132.045 55.0845 131.637 55.8348 131.184 56.557L129.119 59.875H128.208V53.2139H128.999Z" fill="white"/>
<path fill-rule="evenodd" clip-rule="evenodd" d="M136.942 51.8066C136.98 52.1245 137.079 52.4317 137.538 52.4317C137.997 52.4317 138.096 52.1352 138.135 51.8066H138.805C138.756 52.471 138.364 52.8781 137.531 52.8781C136.698 52.8781 136.349 52.4603 136.299 51.8066H136.942ZM135.865 53.2139V56.0247C135.865 57.0748 135.865 57.9534 135.787 58.8464H135.809C136.14 58.1535 136.55 57.4177 137.03 56.6391L139.148 53.2067H139.999V59.8785H139.197V57.0212C139.197 55.9497 139.197 55.1533 139.275 54.3104H139.247C138.885 55.0844 138.476 55.8348 138.022 56.5569L135.981 59.8857H135.064V53.2139H135.865Z" fill="white"/>
<path fill-rule="evenodd" clip-rule="evenodd" d="M133.694 34.0412L141.022 21.6012H135.462L131.039 29.8552L126.644 21.6083H121.043L128.378 34.0483L120.548 47.1313H126.196L131.039 38.2343L135.928 47.1241H141.558L133.701 34.0412H133.694ZM101.251 47.1241H117.862V42.6774H106.175V36.5842H116.125V32.1411H106.175V26.0479H117.862V21.6012H101.251V47.1241ZM79.6936 26.0514H86.2839V47.1241H91.2257V26.0514H97.8124V21.6012H79.6936V26.0479V26.0514ZM72.6339 35.3377C72.6339 38.8879 72.4962 40.713 71.4302 41.8988C71.0278 42.3449 70.5367 42.7 69.9892 42.9406C69.4417 43.1813 68.8502 43.3022 68.2533 43.2953C67.6591 43.3046 67.0699 43.1848 66.5255 42.9439C65.9811 42.7029 65.4941 42.3466 65.0976 41.8988C64.141 40.8273 63.8586 39.3165 63.8586 35.5877V33.1947C63.8586 29.9802 64.1092 27.923 65.0976 26.7658C65.492 26.3177 65.9794 25.9633 66.5249 25.7281C67.0705 25.4928 67.6607 25.3825 68.2533 25.405C68.8483 25.3878 69.44 25.5005 69.9882 25.7353C70.5364 25.9701 71.0282 26.3216 71.4302 26.7658C72.3868 27.8801 72.6339 29.7052 72.6339 33.0019V35.327V35.3377ZM68.2462 20.969C65.5176 20.969 63.1808 21.9048 61.4406 23.7656C59.5663 25.7407 59.1038 28.4087 58.9697 32.1339H55.1469V21.6012H50.205V47.1241H55.1469V36.5842H58.9379C59.0085 39.9523 59.3651 42.8024 61.4512 44.949C63.2161 46.8134 65.5282 47.7456 68.2886 47.7456C71.049 47.7456 73.3222 46.8134 75.0907 44.949C77.5368 42.3738 77.5616 39.3987 77.5616 35.127V31.6946C77.5616 28.1837 76.958 25.7121 75.0907 23.7727C74.2026 22.8566 73.1374 22.1354 71.9616 21.6542C70.7858 21.1731 69.5247 20.9422 68.2568 20.9761L68.2462 20.969ZM28.6728 33.1804C28.6728 41.1738 26.8655 42.6774 24.3522 42.6774H23.6463V47.1241H25.5912C30.8331 47.1241 33.4205 44.1847 33.4205 33.4662V26.0479H39.4389V47.1206H44.3596V21.6012H28.6728V33.1804ZM8.04068 38.4272L11.2176 29.1409L14.2991 38.4272H8.04068ZM9.17377 21.6155L-0.00390625 47.1384H5.13206L6.65344 42.6203H15.6123L17.0983 47.1384H22.2378L13.0355 21.6012L9.17377 21.6155Z" fill="white"/>
<path d="M206 0H146.702V60H206V0Z" fill="white"/>
<path d="M178.396 45.842C185.975 44.4704 186.127 42.0882 186.127 42.0882C186.311 42.5471 186.44 43.0268 186.512 43.5168C186.146 41.3073 185.35 39.1933 184.171 37.297C182.992 35.4008 181.453 33.76 179.643 32.4697H178.396V45.8348V45.842Z" fill="#DA1C5C"/>
<path d="M186.738 45.8027C186.716 45.3312 186.667 44.5991 186.565 43.8669C186.565 43.7526 186.533 43.6383 186.512 43.5097C186.44 43.0197 186.311 42.54 186.127 42.0811C186.127 42.0811 185.975 44.4633 178.396 45.8348V56.9712H182.985C183.376 56.5499 183.73 56.0958 184.044 55.614C185.823 52.8458 186.763 49.6117 186.748 46.3099C186.748 46.1384 186.748 45.9527 186.731 45.7956L186.738 45.8027Z" fill="#9E1F63"/>
<path d="M196.254 32.4771C191.933 40.4668 193.938 42.1991 193.938 42.1991C193.479 42.0812 193.037 41.9048 192.622 41.674C195.698 43.2753 199.188 43.8753 202.615 43.392V32.4771H196.254Z" fill="#DA1C5C"/>
<path d="M196.254 32.4771H184.538C185.659 35.5397 187.632 38.209 190.218 40.1632C190.355 40.2704 190.5 40.3632 190.641 40.4633C190.994 40.7204 191.584 41.099 192.194 41.4455L192.622 41.674C193.037 41.9048 193.479 42.0812 193.938 42.1991C193.938 42.1991 191.933 40.4668 196.254 32.4771Z" fill="#9E1F63"/>
<path d="M190.186 51.6994C190.508 51.2847 190.879 50.9116 191.291 50.5886C189.218 52.3039 187.578 54.4942 186.508 56.9783H197.578C192.393 50.5886 190.186 51.6994 190.186 51.6994Z" fill="#DA1C5C"/>
<path d="M193.494 49.0316L193.081 49.2924C192.491 49.6723 191.921 50.0823 191.372 50.521L191.291 50.5889C190.879 50.9119 190.508 51.2849 190.186 51.6996C190.186 51.6996 192.392 50.5889 197.578 56.9785H202.615V46.7601C199.423 46.6234 196.258 47.4115 193.494 49.0316Z" fill="#9E1F63"/>
<path d="M167.874 44.9992C170.631 42.3455 172.639 38.456 174.27 32.4771H167.51C166.049 35.2643 164.155 37.7965 161.901 39.9775L161.742 40.1275C161.481 40.374 161.213 40.6168 160.948 40.8418L160.733 41.0276C160.401 41.3133 160.062 41.5919 159.716 41.8562C159.663 41.9026 159.607 41.9419 159.55 41.9848C159.215 42.2455 158.873 42.4991 158.527 42.7419L158.467 42.7848C157.623 43.3741 156.755 43.9063 155.865 44.4099L156.285 44.6171L156.081 44.7242L155.858 44.8421L155.819 44.8599C156.723 45.36 157.605 45.8886 158.463 46.4743C158.492 46.4989 158.523 46.5216 158.555 46.5422C158.908 46.7851 159.261 47.0351 159.614 47.2958L159.716 47.3744C160.069 47.6315 160.383 47.8994 160.712 48.1744C160.8 48.2459 160.885 48.3209 160.969 48.3959C161.259 48.6423 161.541 48.8959 161.82 49.1566L161.933 49.2602C164.258 51.485 166.2 54.0877 167.676 56.9607H174.383C172.72 51.1782 170.641 47.5708 167.895 44.9814L167.874 44.9992Z" fill="#58B7DD"/>
<path d="M161.902 39.9809C164.156 37.8007 166.05 35.2683 167.511 32.4805H150.144V36.9129C152.605 37.0836 155.045 37.4999 157.426 38.1558C158.986 38.5786 160.489 39.1927 161.902 39.9845V39.9809Z" fill="#AFDFE4"/>
<path d="M155.866 44.4239C156.755 43.9203 157.63 43.3882 158.467 42.7988L158.527 42.756C158.88 42.5131 159.233 42.2595 159.551 41.9988C159.607 41.9559 159.664 41.9167 159.717 41.8702C160.07 41.6059 160.401 41.3273 160.733 41.0416L160.949 40.8559C161.213 40.6201 161.482 40.3773 161.743 40.1415L161.902 39.9915C160.489 39.1998 158.986 38.5857 157.426 38.1629C155.045 37.507 152.605 37.0906 150.144 36.9199V42.1024C151.612 42.6131 153.035 43.1524 154.422 43.7632C154.905 43.9775 155.389 44.2025 155.866 44.4347V44.4239Z" fill="#0092C8"/>
<path d="M157.009 51.2853C154.762 51.8998 152.464 52.3063 150.144 52.4996V56.9856H167.648C166.172 54.1127 164.23 51.51 161.905 49.2852C160.364 50.1607 158.719 50.8329 157.009 51.2853Z" fill="#AFDFE4"/>
<path d="M161.905 49.278L161.792 49.1744C161.513 48.9136 161.231 48.6601 160.941 48.4136C160.857 48.3386 160.772 48.2636 160.684 48.1922C160.355 47.9172 160.027 47.6493 159.688 47.3921L159.586 47.3135C159.233 47.0528 158.88 46.8028 158.527 46.5599C158.495 46.5393 158.464 46.5167 158.435 46.4921C157.577 45.9063 156.695 45.3777 155.791 44.8777C155.569 44.992 155.346 45.1098 155.12 45.2348C154.895 45.3599 154.556 45.5099 154.27 45.6456L153.797 45.8706H153.769C153.317 46.0778 152.858 46.2813 152.395 46.4778C151.637 46.7957 150.881 47.0921 150.126 47.3814V52.496C152.446 52.3026 154.744 51.8962 156.991 51.2816C158.701 50.8292 160.346 50.1571 161.887 49.2815L161.905 49.278Z" fill="#0092C8"/>
<path d="M153.786 45.867H153.814L154.287 45.642C154.573 45.5063 154.859 45.3706 155.138 45.2313C155.417 45.092 155.586 45.0027 155.809 44.8741L155.847 44.8562L156.07 44.7384L156.275 44.6312L155.854 44.4241C155.378 44.1919 154.894 43.9669 154.411 43.7526C153.024 43.1419 151.587 42.6025 150.133 42.0918V47.3778C150.888 47.0885 151.643 46.7921 152.402 46.4742C152.865 46.2778 153.324 46.0742 153.775 45.867H153.786Z" fill="#58B7DD"/>
<path d="M150.154 3.78223V5.74306C150.532 5.05786 150.96 4.4024 151.435 3.78223H150.154Z" fill="#F58220"/>
<path d="M150.154 21.7979V28.2911H156.861C154.04 26.8451 151.706 24.5855 150.154 21.7979Z" fill="#F7941D"/>
<path d="M174.368 28.291V26.0623C173.372 26.9401 172.272 27.6888 171.093 28.291H174.368Z" fill="#F7941D"/>
<path d="M156.861 28.2908H171.093C172.272 27.6886 173.373 26.9399 174.369 26.0621V21.9976C174.295 22.0547 174.221 22.1083 174.143 22.1583C174.065 22.2083 173.938 22.3405 173.829 22.4262C167.927 26.9586 159.498 25.6728 155.004 19.5689C153.332 17.3115 152.376 14.5934 152.264 11.7744C152.152 8.95542 152.888 6.16841 154.376 3.78223H151.435C150.96 4.4024 150.532 5.05787 150.154 5.74306V21.794C151.706 24.5817 154.04 26.8413 156.861 28.2872V28.2908Z" fill="#FDB913"/>
<path d="M155.004 19.5546C159.497 25.6692 167.927 26.955 173.829 22.4119C173.938 22.3262 174.037 22.2333 174.143 22.144C174.249 22.0547 174.295 22.019 174.369 21.9547V21.8512C171.994 23.1827 169.22 23.5909 166.569 22.999C163.917 22.4071 161.571 20.8558 159.97 18.6367C159.956 18.6132 159.941 18.5906 159.925 18.5688C159.819 18.4617 159.72 18.3474 159.614 18.2367C159.508 18.1259 159.473 17.9938 159.399 17.8795L159.264 17.7402C157.626 15.8276 156.664 13.4176 156.529 10.8903C156.394 8.36302 157.094 5.86221 158.52 3.78223H154.376C152.892 6.16653 152.158 8.95005 152.27 11.7653C152.382 14.5806 153.335 17.2953 155.004 19.551V19.5546Z" fill="#F58220"/>
<path d="M174.368 6.40024V3.78223H170.549C172.019 4.31524 173.333 5.21439 174.368 6.39667V6.40024Z" fill="#F7941D"/>
<path d="M159.278 17.7473L159.412 17.8866C158.287 16.0135 157.699 13.8604 157.715 11.6684C157.703 8.73351 158.814 5.90781 160.814 3.78223H158.519C157.094 5.86441 156.395 8.36755 156.533 10.8964C156.67 13.4253 157.636 15.8358 159.278 17.7473Z" fill="#F7941D"/>
<path d="M158.191 12.4363C158.29 11.0071 158.769 9.63144 159.577 8.45462C160.384 7.2778 161.491 6.34345 162.78 5.7502C163.75 5.31991 164.799 5.10554 165.858 5.12159C168.947 5.15731 171.944 7.12885 173.317 10.3648C173.758 11.4116 173.998 12.5342 174.023 13.6721C174.122 16.9687 172.392 20.0796 169.402 21.4047C169.303 21.4476 169.204 21.4797 169.106 21.519C169.007 21.5583 168.876 21.6154 168.753 21.6511L168.858 21.5833C168.104 21.9142 167.302 22.1181 166.483 22.1869C166.748 22.2155 167.019 22.2369 167.288 22.2405C168.62 22.2618 169.94 21.991 171.159 21.4466C172.378 20.9021 173.466 20.0971 174.347 19.0867V6.40024C173.318 5.21962 172.012 4.31943 170.549 3.78223H164.397C162.629 4.43527 161.094 5.6074 159.988 7.14853C158.883 8.68965 158.257 10.5296 158.191 12.4327V12.4363Z" fill="#F58220"/>
<path d="M159.398 17.8866C159.472 18.0116 159.536 18.1331 159.614 18.2438C159.691 18.3545 159.818 18.4688 159.924 18.576C159.622 18.1409 159.356 17.6809 159.13 17.2009C158.985 16.8902 158.858 16.5758 158.745 16.258C158.403 15.3184 158.208 14.33 158.17 13.3292C158.17 13.1756 158.17 13.0221 158.17 12.8685C158.17 12.7935 158.17 12.722 158.17 12.647V12.6185C158.17 12.5649 158.17 12.5149 158.17 12.4613C158.17 12.4077 158.17 12.4399 158.17 12.4327C158.237 10.5271 158.866 8.68529 159.976 7.14389C161.085 5.60249 162.625 4.43183 164.397 3.78223H160.814C158.825 5.91468 157.712 8.73271 157.7 11.6648C157.685 13.8568 158.273 16.0099 159.398 17.8831V17.8866Z" fill="#FDB913"/>
<path d="M169.116 21.5191C169.215 21.4798 169.314 21.4477 169.413 21.4048C172.402 20.0797 174.132 16.9688 174.033 13.6722C174.005 12.5393 173.766 11.4219 173.327 10.3791C171.951 7.14324 168.957 5.16455 165.869 5.12169C164.81 5.10563 163.76 5.32001 162.791 5.7503C161.502 6.34354 160.395 7.2779 159.587 8.45472C158.78 9.63154 158.301 11.0072 158.202 12.4364C158.202 12.4364 158.202 12.4364 158.202 12.465C158.202 12.5793 158.202 12.6936 158.202 12.8221C158.2 12.8435 158.2 12.865 158.202 12.8864C158.202 13.04 158.202 13.1936 158.202 13.3472C158.24 14.348 158.434 15.3363 158.777 16.2759C158.883 16.5617 158.996 16.8438 159.13 17.1224C158.216 13.7865 159.681 10.2613 162.699 8.90763C166.013 7.43611 169.939 9.16479 171.463 12.7579C172.875 16.0938 171.721 19.8619 168.901 21.5655L168.795 21.6334C168.908 21.5977 169.021 21.5477 169.148 21.5012L169.116 21.5191Z" fill="#FDB913"/>
<path d="M178.389 12.465H202.608V3.78589H178.389V12.465Z" fill="#39B54A"/>
<path d="M178.389 24.9372H202.608V19.9441H178.389V24.9372Z" fill="#39B54A"/>
<path d="M178.389 24.9908V28.291H202.608V24.9908V24.9373H178.389V24.9908Z" fill="#A6CE39"/>
<path d="M178.389 19.9333H202.608V17.6868H178.389V19.9333Z" fill="#A6CE39"/>
<path d="M178.389 12.6651V14.9152H202.608V12.6651V12.4651H178.389V12.6651Z" fill="#A6CE39"/>
</g>
<defs>
<clipPath id="clip0">
<rect width="206" height="60" fill="white"/>
</clipPath>
</defs>
</svg>
