<svg width="145" height="43" viewBox="0 0 145 43" fill="none" xmlns="http://www.w3.org/2000/svg">
<g clip-path="url(#clip0)">
<path fill-rule="evenodd" clip-rule="evenodd" d="M36.8419 37.4565V37.9644H34.976V42.1502H34.3772V37.4565H36.8419Z" fill="#231F20"/>
<path fill-rule="evenodd" clip-rule="evenodd" d="M38.3402 39.7768C38.5034 39.8126 38.6702 39.8286 38.8372 39.8246C39.5602 39.8246 40.0024 39.4701 40.0024 38.819C40.0024 38.1678 39.5676 37.8988 38.9067 37.8988C38.7175 37.8938 38.5282 37.9107 38.3427 37.9491V39.7743L38.3402 39.7768ZM37.7415 37.5142C38.121 37.4523 38.5049 37.422 38.8893 37.4237C39.3559 37.3872 39.8194 37.5259 40.1913 37.8134C40.3262 37.937 40.4327 38.0891 40.5031 38.259C40.5735 38.4289 40.6062 38.6123 40.5988 38.7964C40.6081 38.9798 40.5811 39.1633 40.5192 39.3361C40.4573 39.5088 40.3619 39.6672 40.2385 39.802C40.049 39.9802 39.8259 40.1177 39.5825 40.2063C39.3391 40.2948 39.0805 40.3326 38.8223 40.3173C38.6605 40.3225 38.4987 40.3082 38.3402 40.2746V42.1576H37.7415V37.5117V37.5142Z" fill="#231F20"/>
<path fill-rule="evenodd" clip-rule="evenodd" d="M41.8661 37.4563L42.7879 39.4676C42.9047 39.7466 43.0165 40.0257 43.1258 40.2972H43.1407C43.2227 40.0584 43.3121 39.7818 43.4289 39.4525L44.1519 37.4614H44.7805L43.814 39.8698C43.594 40.4967 43.3031 41.0956 42.9469 41.6548C42.8292 41.8287 42.6723 41.9719 42.4891 42.0724C42.3059 42.173 42.1017 42.228 41.8934 42.233C41.7792 42.2376 41.6651 42.2231 41.5555 42.1903L41.6176 41.6874C41.6899 41.7055 41.7644 41.7131 41.8388 41.7101C42.3208 41.7101 42.6015 41.2425 42.7481 40.9006C42.7701 40.8569 42.7797 40.8079 42.7758 40.7591C42.7718 40.7102 42.7545 40.6635 42.7258 40.624L41.1853 37.4463L41.8661 37.4563Z" fill="#231F20"/>
<path fill-rule="evenodd" clip-rule="evenodd" d="M49.0264 37.4565V42.1502H48.4276V37.9644H46.2709V42.1502H45.6721V37.4565H49.0264Z" fill="#231F20"/>
<path fill-rule="evenodd" clip-rule="evenodd" d="M53.7297 37.4565V42.1502H53.1284V37.9644H50.9743V42.1502H50.3755V37.4565H53.7297Z" fill="#231F20"/>
<path fill-rule="evenodd" clip-rule="evenodd" d="M57.3425 40.2019L56.8878 38.8493C56.786 38.5426 56.7164 38.2635 56.6394 37.992H56.6245C56.5549 38.2711 56.4803 38.5577 56.3909 38.8418L55.9362 40.2019H57.3425ZM55.8219 40.6745L55.3399 42.1527H54.7188L56.294 37.4565H57.017L58.5997 42.1527H57.9612L57.4643 40.6745H55.8219Z" fill="#231F20"/>
<path fill-rule="evenodd" clip-rule="evenodd" d="M62.0258 37.4565V39.5382H62.2121L63.8023 37.4565H64.5253L62.7687 39.6186C63.534 39.7242 63.8296 40.1968 64.0706 40.8304C64.2147 41.2841 64.3847 41.729 64.58 42.1628H63.9315C63.7665 41.8035 63.6262 41.433 63.5116 41.0541C63.3004 40.4331 63.0022 40.0083 62.2171 40.0083H62.0258V42.1628H61.427V37.4565H62.0258Z" fill="#231F20"/>
<path fill-rule="evenodd" clip-rule="evenodd" d="M65.7179 39.8321C65.7179 40.8377 66.2546 41.7327 67.2087 41.7327C68.1628 41.7327 68.6995 40.8478 68.6995 39.7843C68.6995 38.8491 68.2175 37.8737 67.2087 37.8737C66.1999 37.8737 65.7179 38.8014 65.7179 39.8321ZM69.3181 39.7542C69.3181 41.3707 68.3467 42.228 67.1615 42.228C65.9366 42.228 65.0769 41.2676 65.0769 39.8447C65.0769 38.3539 65.9937 37.3784 67.2311 37.3784C68.4684 37.3784 69.3181 38.3614 69.3181 39.7542Z" fill="#231F20"/>
<path fill-rule="evenodd" clip-rule="evenodd" d="M74.293 40.0888C74.2582 39.4351 74.216 38.6483 74.2234 38.0625H74.2036C74.0445 38.6131 73.8507 39.2039 73.6172 39.8449L72.7973 42.1226H72.3451L71.5997 39.8877C71.3785 39.2265 71.1922 38.6307 71.0605 38.0625H71.0481C71.0332 38.6483 70.9984 39.4351 70.9586 40.1391L70.8344 42.1503H70.2629L70.5859 37.4541H71.3512L72.1438 39.7167C72.3351 40.2949 72.4941 40.8103 72.6109 41.298H72.6308C72.7476 40.8254 72.914 40.31 73.1277 39.7167L73.9551 37.4541H74.7179L75.0086 42.1503H74.4222L74.3054 40.0863L74.293 40.0888Z" fill="#231F20"/>
<path fill-rule="evenodd" clip-rule="evenodd" d="M79.5801 37.4565V42.1502H78.9788V37.9644H76.8246V42.1502H76.2258V37.4565H79.5801Z" fill="#231F20"/>
<path fill-rule="evenodd" clip-rule="evenodd" d="M83.1926 40.2019L82.7379 38.8493C82.636 38.5426 82.5664 38.2635 82.4894 37.992H82.477C82.4074 38.2711 82.3329 38.5577 82.2434 38.8418L81.8012 40.2019H83.1926ZM81.672 40.6745L81.19 42.1527H80.5713L82.1465 37.4565H82.8696L84.4523 42.1527H83.8137L83.3168 40.6745H81.672Z" fill="#231F20"/>
<path fill-rule="evenodd" clip-rule="evenodd" d="M86.04 37.4565V39.42H88.2836V37.4565H88.8899V42.1502H88.2836V39.9505H86.04V42.1502H85.4387V37.4565H86.04Z" fill="#231F20"/>
<path fill-rule="evenodd" clip-rule="evenodd" d="M90.8002 37.4562V39.4347C90.8002 40.1739 90.7853 40.7923 90.7431 41.4208H90.758C90.9915 40.9331 91.2797 40.4152 91.6176 39.8671L93.1084 37.4512H93.7271V42.1474H93.1631V40.1361C93.1631 39.3819 93.1631 38.8213 93.2177 38.228H93.1978C92.9443 38.7728 92.6572 39.301 92.3382 39.8093L90.8847 42.1448H90.2437V37.4562H90.8002Z" fill="#231F20"/>
<path fill-rule="evenodd" clip-rule="evenodd" d="M96.3909 36.4658C96.4182 36.6896 96.4878 36.9058 96.8108 36.9058C97.1338 36.9058 97.2034 36.6971 97.2307 36.4658H97.7028C97.668 36.9334 97.3922 37.22 96.8059 37.22C96.2195 37.22 95.9735 36.9259 95.9387 36.4658H96.3909ZM95.6331 37.4563V39.4349C95.6331 40.174 95.6331 40.7925 95.5784 41.421H95.5934C95.8269 40.9332 96.1151 40.4153 96.453 39.8673L97.9438 37.4513H98.5426V42.1475H97.9786V40.1363C97.9786 39.3821 97.9786 38.8215 98.0333 38.2282H98.0134C97.759 38.773 97.4711 39.3012 97.1512 39.8095L95.7151 42.1525H95.0691V37.4563H95.6331Z" fill="#231F20"/>
<path fill-rule="evenodd" clip-rule="evenodd" d="M94.1048 23.9611L99.2629 15.2048H95.3496L92.2364 21.0146L89.143 15.2098H85.1999L90.363 23.9661L84.8521 33.175H88.8275L92.2364 26.9125L95.6776 33.1699H99.6405L94.1098 23.9611H94.1048ZM71.2687 33.1699H82.9613V30.04H74.7347V25.7511H81.7389V22.6236H74.7347V18.3347H82.9613V15.2048H71.2687V33.1699ZM56.0951 18.3372H60.7339V33.1699H64.2123V18.3372H68.8486V15.2048H56.0951V18.3347V18.3372ZM51.1258 24.8737C51.1258 27.3726 51.0289 28.6573 50.2786 29.4919C49.9954 29.8059 49.6497 30.0558 49.2643 30.2253C48.879 30.3947 48.4626 30.4797 48.0424 30.4749C47.6242 30.4815 47.2095 30.3971 46.8263 30.2275C46.4431 30.0579 46.1003 29.8071 45.8212 29.4919C45.1478 28.7377 44.9491 27.6743 44.9491 25.0496V23.3653C44.9491 21.1026 45.1255 19.6546 45.8212 18.84C46.0988 18.5246 46.4419 18.2752 46.8259 18.1096C47.2099 17.944 47.6253 17.8664 48.0424 17.8822C48.4613 17.8701 48.8778 17.9494 49.2636 18.1147C49.6495 18.28 49.9956 18.5274 50.2786 18.84C50.9519 19.6244 51.1258 20.9091 51.1258 23.2295V24.8661V24.8737ZM48.0375 14.7598C46.1168 14.7598 44.472 15.4184 43.2471 16.7282C41.9278 18.1185 41.6023 19.9965 41.5079 22.6186H38.817V15.2048H35.3386V33.1699H38.817V25.7511H41.4855C41.5352 28.1218 41.7861 30.128 43.2546 31.6389C44.4969 32.9512 46.1243 33.6074 48.0673 33.6074C50.0103 33.6074 51.6103 32.9512 52.8551 31.6389C54.577 29.8263 54.5944 27.7321 54.5944 24.7253V22.3094C54.5944 19.8381 54.1695 18.0984 52.8551 16.7333C52.23 16.0884 51.4803 15.5808 50.6527 15.2421C49.8251 14.9034 48.9373 14.7409 48.0449 14.7648L48.0375 14.7598ZM20.1824 23.3552C20.1824 28.9816 18.9102 30.04 17.1412 30.04H16.6443V33.1699H18.0133C21.703 33.1699 23.5242 31.1009 23.5242 23.5563V18.3347H27.7605V33.1674H31.224V15.2048H20.1824V23.3552ZM5.65977 27.0483L7.89593 20.5118L10.065 27.0483H5.65977ZM6.45733 15.2148L-0.00268555 33.18H3.61244L4.68331 29.9998H10.9893L12.0353 33.18H15.6529L9.1755 15.2048L6.45733 15.2148Z" fill="#231F20"/>
<path d="M145 0H103.261V42.233H145V0Z" fill="white"/>
<path d="M125.57 32.2675C130.905 31.3021 131.012 29.6252 131.012 29.6252C131.141 29.9483 131.232 30.2859 131.282 30.6308C131.025 29.0756 130.465 27.5876 129.635 26.2528C128.805 24.9181 127.721 23.7632 126.447 22.855H125.57V32.2624V32.2675Z" fill="#DA1C5C"/>
<path d="M131.441 32.2397C131.427 31.9079 131.392 31.3925 131.32 30.8771C131.32 30.7967 131.297 30.7162 131.282 30.6257C131.232 30.2808 131.141 29.9432 131.012 29.6201C131.012 29.6201 130.905 31.297 125.57 32.2623V40.1011H128.8C129.075 39.8045 129.324 39.4849 129.546 39.1457C130.798 37.1972 131.459 34.9208 131.449 32.5967C131.449 32.476 131.449 32.3453 131.437 32.2347L131.441 32.2397Z" fill="#9E1F63"/>
<path d="M138.14 22.8599C135.099 28.4837 136.51 29.703 136.51 29.703C136.187 29.6201 135.875 29.4959 135.583 29.3335C137.749 30.4605 140.205 30.8829 142.617 30.5427V22.8599H138.14Z" fill="#DA1C5C"/>
<path d="M138.14 22.8599H129.893C130.682 25.0156 132.071 26.8945 133.891 28.27C133.988 28.3455 134.09 28.4108 134.189 28.4812C134.438 28.6622 134.853 28.9287 135.282 29.1726L135.583 29.3335C135.875 29.4959 136.187 29.6201 136.51 29.703C136.51 29.703 135.099 28.4837 138.14 22.8599Z" fill="#9E1F63"/>
<path d="M133.869 36.3903C134.096 36.0984 134.357 35.8358 134.647 35.6084C133.187 36.8157 132.033 38.3575 131.28 40.106H139.072C135.422 35.6084 133.869 36.3903 133.869 36.3903Z" fill="#DA1C5C"/>
<path d="M136.197 34.5124L135.906 34.696C135.491 34.9634 135.09 35.252 134.703 35.5608L134.646 35.6085C134.356 35.8359 134.095 36.0985 133.869 36.3904C133.869 36.3904 135.422 35.6085 139.071 40.1061H142.617V32.9135C140.37 32.8173 138.143 33.372 136.197 34.5124Z" fill="#9E1F63"/>
<path d="M118.164 31.674C120.104 29.8061 121.518 27.0683 122.666 22.8599H117.908C116.879 24.8218 115.546 26.6042 113.96 28.1393L113.848 28.2449C113.664 28.4184 113.475 28.5893 113.289 28.7477L113.137 28.8784C112.904 29.0795 112.665 29.2756 112.422 29.4617C112.384 29.4944 112.345 29.522 112.305 29.5522C112.069 29.7357 111.828 29.9142 111.584 30.0852L111.542 30.1153C110.948 30.5301 110.337 30.9047 109.711 31.2592L110.007 31.405L109.863 31.4804L109.706 31.5634L109.679 31.576C110.315 31.9279 110.936 32.3 111.54 32.7123C111.56 32.7296 111.582 32.7456 111.604 32.7601C111.853 32.931 112.101 33.107 112.35 33.2905L112.422 33.3458C112.67 33.5268 112.891 33.7154 113.122 33.909C113.185 33.9593 113.244 34.0121 113.304 34.0649C113.508 34.2383 113.706 34.4168 113.903 34.6003L113.982 34.6732C115.619 36.2392 116.985 38.0713 118.025 40.0935H122.745C121.575 36.0233 120.112 33.4841 118.179 31.6615L118.164 31.674Z" fill="#58B7DD"/>
<path d="M113.96 28.1417C115.546 26.6071 116.879 24.8246 117.908 22.8623H105.683V25.9822C107.416 26.1024 109.133 26.3954 110.809 26.8571C111.907 27.1547 112.965 27.5869 113.96 28.1443V28.1417Z" fill="#AFDFE4"/>
<path d="M109.711 31.2693C110.337 30.9148 110.953 30.5402 111.542 30.1254L111.584 30.0952C111.833 29.9243 112.081 29.7458 112.305 29.5622C112.345 29.5321 112.384 29.5044 112.422 29.4717C112.67 29.2857 112.904 29.0896 113.137 28.8885L113.289 28.7578C113.475 28.5918 113.664 28.4209 113.848 28.2549L113.96 28.1494C112.965 27.5921 111.907 27.1598 110.809 26.8622C109.133 26.4005 107.416 26.1075 105.683 25.9873V29.6351C106.717 29.9947 107.718 30.3743 108.695 30.8042C109.035 30.955 109.376 31.1134 109.711 31.2768V31.2693Z" fill="#0092C8"/>
<path d="M110.516 36.0988C108.934 36.5313 107.316 36.8174 105.683 36.9535V40.1111H118.005C116.965 38.0889 115.599 36.2569 113.962 34.6909C112.878 35.3072 111.719 35.7803 110.516 36.0988Z" fill="#AFDFE4"/>
<path d="M113.962 34.6857L113.883 34.6127C113.687 34.4292 113.488 34.2507 113.284 34.0773C113.224 34.0245 113.165 33.9717 113.103 33.9214C112.872 33.7278 112.641 33.5393 112.402 33.3583L112.33 33.3029C112.081 33.1194 111.833 32.9434 111.585 32.7725C111.562 32.758 111.54 32.742 111.52 32.7247C110.916 32.3124 110.295 31.9403 109.659 31.5884C109.502 31.6688 109.346 31.7518 109.187 31.8398C109.028 31.9278 108.789 32.0334 108.588 32.1289L108.255 32.2873H108.235C107.917 32.4331 107.594 32.5764 107.269 32.7147C106.735 32.9384 106.203 33.1471 105.671 33.3507V36.9508C107.304 36.8147 108.922 36.5286 110.504 36.096C111.707 35.7776 112.865 35.3045 113.95 34.6882L113.962 34.6857Z" fill="#0092C8"/>
<path d="M108.247 32.2848H108.267L108.6 32.1264C108.801 32.0308 109.003 31.9353 109.199 31.8373C109.395 31.7392 109.514 31.6764 109.671 31.5859L109.698 31.5733L109.855 31.4903L109.999 31.4149L109.703 31.2691C109.368 31.1057 109.028 30.9473 108.687 30.7965C107.711 30.3666 106.699 29.9869 105.676 29.6274V33.3482C106.207 33.1446 106.739 32.9359 107.273 32.7121C107.599 32.5739 107.922 32.4306 108.24 32.2848H108.247Z" fill="#58B7DD"/>
<path d="M105.691 2.66211V4.04231C105.957 3.56001 106.258 3.09864 106.593 2.66211H105.691Z" fill="#F58220"/>
<path d="M105.691 15.3433V19.9137H110.412C108.426 18.8959 106.783 17.3055 105.691 15.3433Z" fill="#F7941D"/>
<path d="M122.735 19.9135V18.3447C122.034 18.9626 121.259 19.4896 120.429 19.9135H122.735Z" fill="#F7941D"/>
<path d="M110.412 19.9133H120.43C121.26 19.4894 122.034 18.9625 122.735 18.3446V15.4836C122.683 15.5238 122.631 15.5615 122.576 15.5967C122.522 15.6319 122.432 15.725 122.355 15.7853C118.201 18.9756 112.268 18.0705 109.105 13.7741C107.928 12.1851 107.255 10.2719 107.176 8.28768C107.097 6.30344 107.615 4.34171 108.663 2.66211H106.593C106.258 3.09864 105.957 3.56001 105.691 4.04231V15.3403C106.783 17.3025 108.426 18.893 110.412 19.9108V19.9133Z" fill="#FDB913"/>
<path d="M109.105 13.764C112.268 18.068 118.201 18.9731 122.355 15.7752C122.432 15.7149 122.502 15.6495 122.576 15.5867C122.651 15.5238 122.683 15.4987 122.735 15.4534V15.3805C121.064 16.3178 119.111 16.6051 117.245 16.1885C115.379 15.7718 113.727 14.6799 112.601 13.1179C112.591 13.1014 112.58 13.0855 112.568 13.0701C112.494 12.9947 112.424 12.9143 112.35 12.8363C112.275 12.7584 112.25 12.6654 112.198 12.5849L112.104 12.4869C110.951 11.1406 110.273 9.44429 110.178 7.66537C110.083 5.88645 110.576 4.12617 111.579 2.66211H108.662C107.618 4.34038 107.101 6.29966 107.18 8.28129C107.259 10.2629 107.93 12.1737 109.105 13.7615V13.764Z" fill="#F58220"/>
<path d="M122.735 4.50489V2.66211H120.047C121.081 3.03729 122.006 3.67019 122.735 4.50237V4.50489Z" fill="#F7941D"/>
<path d="M112.113 12.4919L112.208 12.59C111.416 11.2715 111.002 9.75598 111.013 8.21306C111.005 6.14724 111.786 4.15827 113.194 2.66211H111.579C110.576 4.12773 110.084 5.88965 110.181 7.66967C110.278 9.4497 110.958 11.1464 112.113 12.4919Z" fill="#F7941D"/>
<path d="M111.348 8.75358C111.418 7.74756 111.755 6.77928 112.323 5.95093C112.892 5.12259 113.671 4.46491 114.578 4.04733C115.261 3.74446 116 3.59357 116.745 3.60487C118.919 3.63001 121.028 5.01774 121.995 7.29545C122.306 8.0323 122.474 8.82248 122.492 9.62343C122.561 11.9439 121.344 14.1336 119.239 15.0663C119.17 15.0965 119.1 15.1191 119.031 15.1467C118.961 15.1744 118.869 15.2146 118.782 15.2398L118.857 15.192C118.326 15.4249 117.761 15.5684 117.185 15.6169C117.371 15.637 117.562 15.652 117.751 15.6546C118.689 15.6696 119.618 15.479 120.476 15.0958C121.334 14.7125 122.1 14.1459 122.72 13.4347V4.50489C121.996 3.67387 121.076 3.04024 120.047 2.66211H115.716C114.472 3.12177 113.391 3.94682 112.613 5.03159C111.835 6.11636 111.394 7.41148 111.348 8.75107V8.75358Z" fill="#F58220"/>
<path d="M112.198 12.59C112.25 12.678 112.295 12.7634 112.349 12.8414C112.404 12.9193 112.493 12.9998 112.568 13.0752C112.355 12.7689 112.168 12.4451 112.009 12.1073C111.907 11.8886 111.818 11.6673 111.738 11.4436C111.497 10.7822 111.36 10.0865 111.333 9.38208C111.333 9.27398 111.333 9.16588 111.333 9.05778C111.333 9.00498 111.333 8.9547 111.333 8.90191V8.88179C111.333 8.84408 111.333 8.80889 111.333 8.77118C111.333 8.73347 111.333 8.75609 111.333 8.75106C111.381 7.40969 111.823 6.1133 112.604 5.02833C113.385 3.94336 114.469 3.11935 115.716 2.66211H113.194C111.794 4.16311 111.011 6.14667 111.003 8.21055C110.992 9.75347 111.406 11.269 112.198 12.5875V12.59Z" fill="#FDB913"/>
<path d="M119.038 15.1469C119.108 15.1193 119.177 15.0967 119.247 15.0665C121.351 14.1338 122.569 11.9441 122.499 9.62365C122.48 8.8262 122.311 8.03973 122.002 7.30572C121.033 5.02802 118.926 3.63525 116.752 3.60508C116.007 3.59378 115.268 3.74468 114.586 4.04755C113.678 4.46513 112.899 5.1228 112.331 5.95115C111.762 6.77949 111.425 7.74778 111.356 8.75379C111.356 8.75379 111.356 8.75379 111.356 8.77391C111.356 8.85435 111.356 8.9348 111.356 9.02531C111.354 9.04037 111.354 9.0555 111.356 9.07056C111.356 9.17867 111.356 9.28677 111.356 9.39487C111.383 10.0993 111.519 10.795 111.761 11.4564C111.835 11.6575 111.915 11.8561 112.009 12.0522C111.366 9.70409 112.397 7.22276 114.521 6.26994C116.854 5.23417 119.617 6.45095 120.69 8.98006C121.684 11.3282 120.872 13.9804 118.887 15.1796L118.812 15.2274C118.892 15.2023 118.971 15.1671 119.06 15.1344L119.038 15.1469Z" fill="#FDB913"/>
<path d="M125.565 8.77362H142.612V2.66455H125.565V8.77362Z" fill="#39B54A"/>
<path d="M125.565 17.5527H142.612V14.0381H125.565V17.5527Z" fill="#39B54A"/>
<path d="M125.565 17.5904V19.9134H142.612V17.5904V17.5527H125.565V17.5904Z" fill="#A6CE39"/>
<path d="M125.565 14.031H142.612V12.4497H125.565V14.031Z" fill="#A6CE39"/>
<path d="M125.565 8.91471V10.4985H142.612V8.91471V8.77393H125.565V8.91471Z" fill="#A6CE39"/>
</g>
<defs>
<clipPath id="clip0">
<rect width="145" height="42.233" fill="white"/>
</clipPath>
</defs>
</svg>
