<svg width="51" height="31" viewBox="0 0 51 31" fill="none" xmlns="http://www.w3.org/2000/svg">
<path d="M42.3194 17.6843C41.4949 16.643 41.7308 16.1798 42.3194 15.249C42.33 15.2384 49.1364 5.83313 49.8376 2.64351L49.8419 2.64138C50.1904 1.47901 49.8419 0.624756 48.1567 0.624756H42.5807C41.1613 0.624756 40.5067 1.35788 40.1561 2.17813C40.1561 2.17813 37.3171 8.97388 33.3009 13.379C32.0046 14.6519 31.4054 15.0599 30.6978 15.0599C30.3493 15.0599 29.8074 14.6519 29.8074 13.4895V2.64138C29.8074 1.24738 29.41 0.624756 28.2349 0.624756H19.4671C18.5767 0.624756 18.0476 1.27501 18.0476 1.88063C18.0476 3.20238 20.0557 3.50626 20.264 7.22501V15.2936C20.264 17.0616 19.9431 17.3868 19.2313 17.3868C17.3358 17.3868 12.7351 10.5634 10.0087 2.75401C9.45837 1.23888 8.92075 0.626881 7.49063 0.626881H1.9125C0.320875 0.626881 0 1.36001 0 2.18026C0 3.62951 1.8955 10.8354 8.8145 20.3554C13.4257 26.8536 19.9198 30.3748 25.8273 30.3748C29.3781 30.3748 29.8116 29.5928 29.8116 28.2476C29.8116 22.0384 29.4907 21.4519 31.2694 21.4519C32.0939 21.4519 33.5134 21.8599 36.8284 24.9943C40.6172 28.7109 41.2399 30.3748 43.3606 30.3748H48.9366C50.5261 30.3748 51.3315 29.5928 50.8682 28.05C49.8079 24.8051 42.6424 18.1305 42.3194 17.6843Z" fill="white"/>
</svg>
