<svg width="46" height="46" viewBox="0 0 46 46" fill="none" xmlns="http://www.w3.org/2000/svg">
<path d="M23.166 13.6926C18.0771 13.6926 13.9375 17.8323 13.9375 22.9211C13.9375 28.01 18.0771 32.1497 23.166 32.1497C28.2549 32.1497 32.3945 28.01 32.3945 22.9211C32.3945 17.8323 28.2549 13.6926 23.166 13.6926ZM23.166 13.6926C18.0771 13.6926 13.9375 17.8323 13.9375 22.9211C13.9375 28.01 18.0771 32.1497 23.166 32.1497C28.2549 32.1497 32.3945 28.01 32.3945 22.9211C32.3945 17.8323 28.2549 13.6926 23.166 13.6926ZM39.0742 0.333252H7.25781C3.61914 0.333252 0.666016 3.28638 0.666016 6.92505V38.7414C0.666016 42.3801 3.61914 45.3332 7.25781 45.3332H39.0742C42.7129 45.3332 45.666 42.3801 45.666 38.7414V6.92505C45.666 3.28638 42.7129 0.333252 39.0742 0.333252ZM23.166 34.7864C16.627 34.7864 11.3008 29.4601 11.3008 22.9211C11.3008 16.382 16.627 11.0559 23.166 11.0559C29.705 11.0559 35.0312 16.382 35.0312 22.9211C35.0312 29.4601 29.705 34.7864 23.166 34.7864ZM37.668 11.0559C36.2178 11.0559 35.0312 9.86938 35.0312 8.41919C35.0312 6.96899 36.2178 5.78247 37.668 5.78247C39.1182 5.78247 40.3047 6.96899 40.3047 8.41919C40.3047 9.86938 39.1182 11.0559 37.668 11.0559ZM23.166 13.6926C18.0771 13.6926 13.9375 17.8323 13.9375 22.9211C13.9375 28.01 18.0771 32.1497 23.166 32.1497C28.2549 32.1497 32.3945 28.01 32.3945 22.9211C32.3945 17.8323 28.2549 13.6926 23.166 13.6926ZM23.166 13.6926C18.0771 13.6926 13.9375 17.8323 13.9375 22.9211C13.9375 28.01 18.0771 32.1497 23.166 32.1497C28.2549 32.1497 32.3945 28.01 32.3945 22.9211C32.3945 17.8323 28.2549 13.6926 23.166 13.6926ZM23.166 13.6926C18.0771 13.6926 13.9375 17.8323 13.9375 22.9211C13.9375 28.01 18.0771 32.1497 23.166 32.1497C28.2549 32.1497 32.3945 28.01 32.3945 22.9211C32.3945 17.8323 28.2549 13.6926 23.166 13.6926Z" fill="white"/>
</svg>
