<svg width="51" height="37" viewBox="0 0 51 37" fill="none" xmlns="http://www.w3.org/2000/svg">
<path d="M49.8723 5.59928L49.936 6.01578C49.3198 3.82915 47.6559 2.1419 45.5415 1.52778L45.4969 1.51715C41.521 0.437651 25.5219 0.437651 25.5219 0.437651C25.5219 0.437651 9.56313 0.416401 5.54688 1.51715C3.39213 2.1419 1.72613 3.82915 1.1205 5.97115L1.10988 6.01578C-0.3755 13.7742 -0.386125 23.0965 1.17575 31.4032L1.10988 30.9824C1.72613 33.169 3.39 34.8563 5.50438 35.4704L5.549 35.481C9.52063 36.5627 25.524 36.5627 25.524 36.5627C25.524 36.5627 41.4806 36.5627 45.499 35.481C47.6559 34.8563 49.3219 33.169 49.9275 31.027L49.9381 30.9824C50.6139 27.3742 51.0006 23.2219 51.0006 18.9804C51.0006 18.8253 51.0006 18.668 50.9985 18.5108C51.0006 18.3663 51.0006 18.1942 51.0006 18.022C51.0006 13.7784 50.6139 9.62615 49.8723 5.59928ZM20.4176 26.2585V10.7609L33.7329 18.5214L20.4176 26.2585Z" fill="white"/>
</svg>
